<svg width="9" height="14" viewBox="0 0 9 14" fill="none" xmlns="http://www.w3.org/2000/svg">
<path d="M8.73958 8.08694C8.57552 7.74827 8.3361 7.44552 8.03699 7.19851C7.71361 6.9368 7.34868 6.72277 6.955 6.56392C6.58026 6.41343 6.19245 6.29258 5.79572 6.2027L5.58494 6.15063L4.56969 5.92283C4.33135 5.87397 4.09667 5.81092 3.8671 5.73408C3.68582 5.67351 3.51162 5.59609 3.34718 5.50302L3.28746 5.47048C3.12451 5.37941 2.98534 5.25605 2.87995 5.10925C2.78217 4.95959 2.73562 4.786 2.74646 4.61134C2.74519 4.39239 2.82036 4.17893 2.96075 4.00279C3.06245 3.88254 3.18756 3.78099 3.32961 3.70339C3.41016 3.65681 3.49477 3.61654 3.58255 3.58298C3.89831 3.47504 4.23319 3.42315 4.56969 3.43003C4.98946 3.41607 5.40593 3.50355 5.77815 3.68387C5.83436 3.71316 5.89408 3.74245 5.94677 3.77499C6.19477 3.94243 6.37529 4.18181 6.45967 4.45514C6.48457 4.53805 6.53767 4.61132 6.61107 4.66408C6.68448 4.71684 6.77428 4.74628 6.86717 4.74802H8.37423C8.43465 4.74753 8.49426 4.73521 8.54917 4.71188C8.60409 4.68854 8.65305 4.65471 8.69286 4.61261C8.73266 4.57051 8.76241 4.52109 8.78015 4.46759C8.79789 4.41409 8.80322 4.35773 8.79579 4.30219C8.72819 3.86586 8.55397 3.44959 8.28641 3.08508C7.92011 2.58845 7.4116 2.19627 6.81799 1.95258C6.48857 1.81543 6.14319 1.71387 5.78869 1.64993V0.413296C5.78869 0.185495 5.6552 0 5.48657 0H3.63173C3.46662 0 3.32961 0.185495 3.32961 0.413296V1.68247C3.00084 1.74202 2.67949 1.83252 2.37057 1.95258C1.75464 2.19273 1.22134 2.58436 0.828379 3.08508C0.452336 3.57331 0.257558 4.16145 0.27333 4.76104C0.254918 5.10922 0.319676 5.45687 0.462984 5.7792C0.606292 6.10153 0.824618 6.39058 1.10239 6.62576C1.74698 7.12093 2.51099 7.46476 3.32961 7.62808H3.38231L4.6259 7.91771C4.98549 7.99471 5.3379 8.09809 5.67979 8.22687L5.78869 8.27569C5.99409 8.36576 6.1771 8.49429 6.32617 8.65318C6.47962 8.81975 6.56097 9.03309 6.55452 9.25198C6.56476 9.49523 6.48411 9.73431 6.32617 9.92887C6.18549 10.0921 6.00647 10.2234 5.80274 10.3129C5.74653 10.3389 5.68681 10.3649 5.62358 10.3877C5.28639 10.503 4.92904 10.5592 4.56969 10.5537C4.18847 10.5597 3.80946 10.499 3.45257 10.3747C3.42095 10.3747 3.38933 10.3487 3.35772 10.3357C3.08267 10.2291 2.84103 10.0601 2.65512 9.84426C2.51778 9.67323 2.42192 9.47675 2.37408 9.26825C2.35285 9.18152 2.3008 9.1039 2.22627 9.04784C2.15174 8.99179 2.05906 8.96053 1.96307 8.95909H0.4279C0.367525 8.95918 0.307852 8.97108 0.252789 8.99402C0.197727 9.01697 0.148517 9.05042 0.108386 9.09221C0.0682541 9.13399 0.0381055 9.18316 0.0199151 9.23649C0.00172469 9.28982 -0.00409703 9.34611 0.00283134 9.40167C0.0583783 9.9858 0.290998 10.5435 0.673872 11.0105C1.05675 11.4774 1.57428 11.8346 2.16682 12.0409C2.54092 12.1812 2.93102 12.2816 3.32961 12.3403V13.5835C3.32961 13.8145 3.46662 14 3.63173 14H5.48657C5.6552 14 5.78869 13.8145 5.78869 13.5835V12.3371C6.18754 12.2812 6.57785 12.1818 6.95148 12.0409C7.56007 11.8171 8.08586 11.4351 8.46557 10.941C8.82419 10.4447 9.01051 9.85882 8.99954 9.26174C9.00488 8.8574 8.91622 8.45673 8.73958 8.08694Z" fill="#FFD500"/>
</svg>
