<svg width="17" height="18" viewBox="0 0 17 18" fill="none" xmlns="http://www.w3.org/2000/svg">
<path d="M7.5 17.25C7.5 17.4489 7.42098 17.6397 7.28033 17.7803C7.13968 17.921 6.94891 18 6.75 18H1.5C1.10218 18 0.720644 17.842 0.43934 17.5607C0.158035 17.2794 0 16.8978 0 16.5V1.5C0 1.10218 0.158035 0.720644 0.43934 0.43934C0.720644 0.158035 1.10218 0 1.5 0H6.75C6.94891 0 7.13968 0.0790178 7.28033 0.21967C7.42098 0.360322 7.5 0.551088 7.5 0.75C7.5 0.948912 7.42098 1.13968 7.28033 1.28033C7.13968 1.42098 6.94891 1.5 6.75 1.5H1.5V16.5H6.75C6.94891 16.5 7.13968 16.579 7.28033 16.7197C7.42098 16.8603 7.5 17.0511 7.5 17.25ZM16.7806 8.46937L13.0306 4.71937C12.8899 4.57864 12.699 4.49958 12.5 4.49958C12.301 4.49958 12.1101 4.57864 11.9694 4.71937C11.8286 4.86011 11.7496 5.05098 11.7496 5.25C11.7496 5.44902 11.8286 5.63989 11.9694 5.78063L14.4397 8.25H5.75C5.55109 8.25 5.36032 8.32902 5.21967 8.46967C5.07902 8.61032 5 8.80109 5 9C5 9.19891 5.07902 9.38968 5.21967 9.53033C5.36032 9.67098 5.55109 9.75 5.75 9.75H14.4397L11.9694 12.2194C11.8286 12.3601 11.7496 12.551 11.7496 12.75C11.7496 12.949 11.8286 13.1399 11.9694 13.2806C12.1101 13.4214 12.301 13.5004 12.5 13.5004C12.699 13.5004 12.8899 13.4214 13.0306 13.2806L16.7806 9.53063C16.8504 9.46097 16.9057 9.37825 16.9434 9.2872C16.9812 9.19616 17.0006 9.09856 17.0006 9C17.0006 8.90144 16.9812 8.80384 16.9434 8.7128C16.9057 8.62175 16.8504 8.53903 16.7806 8.46937Z" fill="#14121E"/>
</svg>
