<svg width="122" height="28" viewBox="0 0 122 28" fill="none" xmlns="http://www.w3.org/2000/svg">
<path d="M105.501 16.4071C104.156 16.6596 102.79 16.7855 101.422 16.7833H101.231C97.472 16.7501 94.2719 15.7931 93.0604 14.341C92.904 13.9739 92.8105 13.5831 92.7839 13.1849C95.168 14.3548 98.4401 14.9523 101.693 14.9523C102.498 14.9523 103.302 14.9163 104.093 14.8416C103.204 13.7712 102.439 12.6029 101.814 11.3594H101.693C95.8844 11.3594 92.7617 9.38734 92.7617 8.59354C92.7617 7.79973 95.6742 5.95213 101.093 5.82767C101.646 4.5526 102.912 3.23052 103.914 2.32055C103.181 2.2597 102.437 2.22651 101.701 2.22651C95.4778 2.22651 89.1744 4.41708 89.1744 8.58801C89.1759 8.78251 89.1916 8.97664 89.2214 9.16884C89.2029 9.25178 89.19 9.33587 89.1827 9.42053C89.0499 11.0247 88.8923 14.9357 90.2642 16.6118C93.0079 19.9585 98.8217 20.3678 101.195 20.3872H101.422C103.952 20.4071 106.469 20.0195 108.876 19.2394C107.662 18.407 106.532 17.4585 105.501 16.4071Z" fill="#14121E"/>
<path d="M110.508 14.1917C110.626 13.8503 110.694 13.4934 110.709 13.1323C110.353 13.3121 109.974 13.4753 109.581 13.6274C109.835 13.8736 110.093 14.1114 110.355 14.3438L110.508 14.1917Z" fill="#14121E"/>
<path d="M104.022 7.10276C104.164 6.77591 104.359 6.47495 104.6 6.21215C105.165 7.82686 105.981 9.34263 107.017 10.7039C108.095 10.4459 109.117 9.99208 110.032 9.3652C109.405 8.59649 108.85 7.77257 108.372 6.90358C106.865 6.30062 104.616 5.79723 101.684 5.79723C101.482 5.79723 101.281 5.79723 101.084 5.79723C100.954 6.08343 100.866 6.38723 100.824 6.6989C100.639 8.28374 101.101 9.89348 101.806 11.3483C102.983 11.3492 104.159 11.2567 105.322 11.0717C104.395 9.56158 103.908 8.14549 104.022 7.10276Z" fill="#14121E"/>
<path d="M117.198 5.13069C113.326 1.12294 108.01 -1.57378 105.305 1.02614C105.18 1.14742 105.065 1.27777 104.959 1.41613C104.894 1.45438 104.832 1.49786 104.774 1.54612C104.539 1.73697 104.221 1.99696 103.9 2.29844C107.592 2.60822 111.016 3.69241 112.847 5.50405C113.569 6.07611 114.251 6.69618 114.889 7.35998C118.484 11.0939 119.167 14.3355 118.647 14.8278C118.28 15.1819 116.556 14.8887 114.3 13.3564C114.181 14.601 113.887 15.7572 113.284 16.468L113.26 16.4929C114.051 16.9833 114.891 17.3911 115.765 17.7099C115.525 17.9245 115.254 18.1016 114.961 18.2354C114.205 18.2686 113.254 17.992 112.222 17.4775C111.208 18.2383 110.076 18.827 108.87 19.22C110.903 20.603 113.157 21.571 115.212 21.4327C117.054 21.3165 119.361 18.8743 120.559 17.4277L120.597 17.3752C120.694 17.2993 120.786 17.218 120.874 17.1318C123.568 14.5512 121.065 9.12737 117.198 5.13069Z" fill="#14121E"/>
<path d="M107.833 14.1917C106.607 14.512 105.356 14.7285 104.093 14.8389C104.506 15.345 104.89 15.7682 105.2 16.0863C105.244 16.1361 105.291 16.1831 105.338 16.2329L105.51 16.4071C106.722 16.1956 107.899 15.8177 109.008 15.2842C108.605 14.9357 108.215 14.5761 107.833 14.1917Z" fill="#14121E"/>
<path d="M111.31 10.8118C110.831 10.3195 110.408 9.8354 110.032 9.3652C109.117 9.99208 108.095 10.4459 107.017 10.7039C107.625 11.5261 108.285 12.3077 108.995 13.0438C109.188 13.243 109.385 13.4366 109.581 13.6274C109.974 13.4753 110.353 13.3121 110.709 13.1323C110.694 13.4934 110.626 13.8503 110.508 14.1917L110.355 14.3438C111.257 15.1469 112.228 15.8689 113.257 16.5012L113.282 16.4763C113.885 15.7655 114.178 14.6093 114.297 13.3647C113.217 12.6176 112.216 11.7622 111.31 10.8118Z" fill="#14121E"/>
<path d="M107.648 14.0064L107.523 13.8764C106.7 13.0139 105.966 12.0716 105.33 11.0635C104.167 11.2484 102.992 11.3409 101.814 11.3401C102.439 12.5836 103.204 13.7518 104.093 14.8223C105.356 14.7119 106.607 14.4954 107.833 14.1751L107.648 14.0064Z" fill="#14121E"/>
<path d="M101.092 5.80833C101.289 5.80833 101.491 5.8083 101.693 5.8083C104.625 5.8083 106.873 6.31169 108.381 6.91465C107.365 5.02832 107.227 3.65922 107.551 3.34944C107.968 2.94562 110.134 3.37987 112.845 5.51512C111.016 3.70347 107.59 2.61925 103.914 2.30948C102.912 3.20838 101.643 4.5305 101.092 5.80833Z" fill="#14121E"/>
<path d="M109 15.2842C107.891 15.8177 106.714 16.1955 105.501 16.4071C106.529 17.4542 107.657 18.399 108.867 19.2283C110.073 18.8353 111.205 18.2466 112.22 17.4858C111.061 16.8854 109.98 16.1461 109 15.2842Z" fill="#14121E"/>
<path d="M0 20.3457V2.02735H4.84304V5.25512H5.05601C5.40429 4.22647 6.07317 3.33656 6.96446 2.71605C7.90772 2.08173 9.02553 1.7578 10.1618 1.78949C11.3021 1.75587 12.424 2.08303 13.3674 2.72435C14.2386 3.33111 14.8652 4.22831 15.1348 5.25512H15.3257C15.6977 4.20956 16.4147 3.32186 17.3586 2.73818C18.4033 2.08751 19.616 1.75765 20.8463 1.78949C22.5557 1.78949 23.945 2.3316 25.0145 3.41582C26.084 4.50004 26.6187 6.03509 26.6187 8.02099V20.3457H21.5489V9.02776C21.5489 8.00992 21.2723 7.24654 20.7385 6.73762C20.1901 6.22534 19.4612 5.9509 18.7111 5.97425C18.3091 5.95226 17.9072 6.01947 17.5342 6.17105C17.1613 6.32264 16.8264 6.55484 16.5537 6.85103C16.0106 7.49363 15.7291 8.31713 15.7654 9.15776V20.3457H10.8533V8.91989C10.8728 8.52913 10.8149 8.13836 10.6829 7.77003C10.551 7.40171 10.3476 7.06307 10.0844 6.77358C9.82168 6.50677 9.50612 6.29783 9.15793 6.16017C8.80974 6.02252 8.43662 5.95919 8.06251 5.97425C7.52533 5.96639 6.99724 6.1133 6.54128 6.39742C6.08583 6.68811 5.71705 7.09607 5.47365 7.57845C5.20131 8.12798 5.06652 8.73545 5.0809 9.3486V20.3457H0Z" fill="#14121E"/>
<path d="M35.1099 20.6915C34.0364 20.7106 32.971 20.5013 31.9845 20.0774C31.1008 19.6931 30.349 19.0585 29.8216 18.252C29.269 17.3433 28.9976 16.2915 29.0416 15.2289C29.0087 14.3414 29.1989 13.4599 29.5948 12.6649C29.9565 11.9925 30.4815 11.4218 31.1216 11.0054C31.802 10.5685 32.5495 10.2462 33.3343 10.0512C34.1857 9.83213 35.0532 9.68137 35.9286 9.60034C36.9944 9.48602 37.8528 9.37999 38.5037 9.28226C39.0025 9.23433 39.4858 9.08265 39.9226 8.83696C40.0663 8.74065 40.1826 8.60875 40.2601 8.45413C40.3377 8.2995 40.3738 8.12741 40.3651 7.95465V7.88273C40.3836 7.55607 40.3295 7.22936 40.2066 6.92614C40.0837 6.62292 39.895 6.35073 39.6543 6.12917C39.1813 5.71429 38.512 5.50962 37.6462 5.50962C36.873 5.46816 36.1072 5.67877 35.464 6.10981C34.9465 6.47804 34.5683 7.01014 34.3908 7.61998L29.6888 7.23829C29.9049 6.17005 30.3894 5.17441 31.0967 4.34519C31.833 3.50565 32.7636 2.859 33.8072 2.46163C35.044 1.99644 36.3584 1.77207 37.6794 1.80059C38.6669 1.79687 39.6509 1.91673 40.6085 2.15739C41.4974 2.37536 42.3403 2.75 43.0978 3.26373C43.8204 3.76012 44.4117 4.42451 44.8209 5.19984C45.2621 6.06943 45.4798 7.0352 45.4543 8.00996V20.3457H40.6085V17.8039H40.4647C40.1665 18.3774 39.763 18.8897 39.2753 19.3141C38.7554 19.7645 38.1521 20.1084 37.4997 20.3264C36.7293 20.5814 35.9214 20.7049 35.1099 20.6915ZM36.5648 17.1843C37.2515 17.1982 37.9313 17.0444 38.5452 16.7363C39.094 16.4608 39.559 16.0435 39.8921 15.5276C40.2204 15.0114 40.3906 14.4106 40.3817 13.7989V11.8628C40.1784 11.9836 39.9597 12.0766 39.7317 12.1394C39.4278 12.2305 39.1195 12.3062 38.8079 12.3662C38.4649 12.4354 38.122 12.4934 37.7818 12.546L36.8497 12.6815C36.314 12.7536 35.7898 12.8939 35.2897 13.0992C34.8829 13.2621 34.5248 13.5268 34.2498 13.8681C33.9961 14.2157 33.8665 14.6384 33.8819 15.0685C33.8652 15.3742 33.9258 15.6792 34.0583 15.9553C34.1908 16.2314 34.3908 16.4695 34.6398 16.6478C35.2081 17.0267 35.8824 17.2146 36.5648 17.1843Z" fill="#14121E"/>
<path d="M53.9898 9.75522V20.3457H48.9089V2.02739H53.7519V5.25516H53.9676C54.3548 4.21216 55.0701 3.32308 56.0061 2.72162C57.0429 2.07794 58.2463 1.75376 59.4662 1.78952C60.6272 1.76079 61.7743 2.04756 62.7852 2.61928C63.7392 3.17912 64.5084 4.00601 64.9979 4.99793C65.5495 6.14399 65.8197 7.40509 65.7862 8.67653V20.3457H60.7164V9.58927C60.7164 8.46633 60.4305 7.58955 59.8589 6.95893C59.5512 6.63739 59.1775 6.38615 58.7636 6.22241C58.3498 6.05867 57.9054 5.9863 57.4609 6.01024C56.8305 5.99683 56.2076 6.14945 55.6548 6.45278C55.1303 6.74841 54.7064 7.19446 54.4378 7.73337C54.1317 8.36275 53.9782 9.05543 53.9898 9.75522Z" fill="#14121E"/>
<path d="M77.306 27.4762C75.8677 27.5106 74.435 27.2848 73.077 26.8096C72.0165 26.4373 71.0585 25.8205 70.2807 25.009C69.6169 24.304 69.1521 23.4355 68.9338 22.4921L73.6357 21.8587C73.7959 22.2178 74.0274 22.5406 74.3161 22.8074C74.6723 23.1342 75.0923 23.3838 75.5497 23.5403C76.1545 23.7425 76.7903 23.8362 77.4277 23.8169C78.4015 23.8553 79.3617 23.5789 80.166 23.0286C80.8851 22.5068 81.2446 21.6448 81.2446 20.4426V17.1014H81.04C80.7978 17.6401 80.4583 18.1295 80.0387 18.5452C79.5473 19.0268 78.9629 19.4032 78.3211 19.6515C77.5221 19.9542 76.6722 20.0997 75.818 20.0802C74.5043 20.096 73.2096 19.765 72.0647 19.1205C70.8948 18.4304 69.9599 17.4039 69.3818 16.1748C68.718 14.8509 68.3861 13.1748 68.3861 11.1465C68.3861 9.07207 68.7245 7.33971 69.4012 5.9494C69.9802 4.66867 70.9178 3.58311 72.1007 2.82397C73.2075 2.1407 74.4841 1.78226 75.7848 1.78954C76.6725 1.76035 77.5549 1.93739 78.3626 2.30675C79.0064 2.61391 79.5784 3.05305 80.0415 3.59565C80.4378 4.05308 80.7734 4.55973 81.04 5.10305H81.2308V2.0274H86.2758V20.5228C86.2758 22.0495 85.8941 23.3283 85.1307 24.359C84.3203 25.4237 83.221 26.233 81.9638 26.6906C80.4735 27.2397 78.8939 27.506 77.306 27.4762ZM77.4139 16.2661C78.1551 16.2892 78.8841 16.074 79.4939 15.6521C80.0922 15.2029 80.5475 14.59 80.8049 13.8874C81.1322 13.003 81.288 12.0643 81.264 11.1216C81.2852 10.1696 81.1315 9.22177 80.8104 8.32528C80.5561 7.5998 80.1015 6.96115 79.4994 6.48322C78.8835 6.05205 78.1492 5.82215 77.3975 5.82512C76.6457 5.8281 75.9132 6.06378 75.3008 6.49981C74.7009 6.98783 74.2504 7.63481 74.0008 8.36677C73.6913 9.25533 73.5424 10.1919 73.5611 11.1326C73.5398 12.0643 73.6918 12.9919 74.0091 13.8681C74.26 14.5749 74.7118 15.193 75.3091 15.6465C75.9246 16.0765 76.6636 16.294 77.4139 16.2661Z" fill="#14121E"/>
</svg>
