<svg width="6" height="7" viewBox="0 0 6 7" fill="none" xmlns="http://www.w3.org/2000/svg">
<path d="M5.4 3.5L0.6 6.41667L0.6 0.583334L5.4 3.5Z" fill="#14121E"/>
<path fill-rule="evenodd" clip-rule="evenodd" d="M6 3.5C6 3.29887 5.89343 3.11193 5.718 3.00533L0.917999 0.088668C0.733038 -0.0237216 0.499911 -0.0296727 0.309138 0.0731256C0.118366 0.175924 -3.19553e-07 0.371277 -3.10284e-07 0.583334L-5.53006e-08 6.41667C-4.60314e-08 6.62872 0.118366 6.82408 0.309139 6.92687C0.499912 7.02967 0.733038 7.02372 0.917999 6.91133L5.718 3.99467C5.89343 3.88807 6 3.70113 6 3.5ZM1.2 5.36419L1.2 1.63581L4.26792 3.5L1.2 5.36419Z" fill="#14121E"/>
</svg>
