<svg width="6" height="7" viewBox="0 0 6 7" fill="none" xmlns="http://www.w3.org/2000/svg">
<path d="M0.6 3.5L5.4 6.41667L5.4 0.583333L0.6 3.5Z" fill="#14121E"/>
<path fill-rule="evenodd" clip-rule="evenodd" d="M-1.5299e-07 3.5C-1.61781e-07 3.29887 0.106572 3.11193 0.282 3.00533L5.082 0.0886676C5.26696 -0.0237221 5.50009 -0.0296732 5.69086 0.0731251C5.88163 0.175923 6 0.371277 6 0.583333L6 6.41667C6 6.62872 5.88163 6.82408 5.69086 6.92687C5.50009 7.02967 5.26696 7.02372 5.082 6.91133L0.282 3.99467C0.106572 3.88807 -1.44198e-07 3.70113 -1.5299e-07 3.5ZM4.8 5.36419L4.8 1.63581L1.73208 3.5L4.8 5.36419Z" fill="#14121E"/>
</svg>
