<svg width="24" height="15" viewBox="0 0 24 15" fill="none" xmlns="http://www.w3.org/2000/svg">
<path d="M19.6564 3.58814C16.9523 0.785347 13.2307 -1.10059 11.3486 0.717646C11.2609 0.801962 11.18 0.893165 11.1068 0.990382C11.0612 1.01714 11.0179 1.04754 10.9772 1.08129C10.8109 1.21476 10.5904 1.39658 10.366 1.60742C9.85146 1.56487 9.33113 1.54166 8.81854 1.54166C4.45864 1.54746 0.0523184 3.07362 0.0523184 5.99634C0.0533462 6.13236 0.0643366 6.26812 0.0852014 6.40254C0.0717052 6.45987 0.0620126 6.51802 0.056187 6.57663C-0.0347249 7.69852 -0.137243 10.4336 0.814431 11.6058C2.73325 13.9463 6.79914 14.2326 8.45877 14.2461H8.61544C10.3882 14.2613 12.1517 13.9903 13.838 13.4434C15.2617 14.4105 16.8381 15.0875 18.2753 14.9908C19.5636 14.9096 21.1768 13.2016 22.0124 12.19C22.024 12.1783 22.0317 12.1648 22.0414 12.1532C22.1094 12.1006 22.174 12.0438 22.2348 11.983C24.1111 10.1764 22.3586 6.3832 19.6564 3.58814ZM8.393 4.06204C8.30217 4.26246 8.2403 4.47478 8.20924 4.69262C8.08158 5.80291 8.40267 6.9248 8.89592 7.94224H8.81081C4.74879 7.94224 2.56303 6.56309 2.56303 6.00794C2.56303 5.4528 4.60372 4.15102 8.393 4.06204ZM8.62318 11.7393H8.48198C5.85327 11.716 3.61529 11.0468 2.76807 10.0313C2.65773 9.77485 2.5923 9.50135 2.57464 9.22274C4.242 10.0409 6.53027 10.4588 8.805 10.4588C9.36788 10.4588 9.93076 10.4336 10.484 10.3814C10.7722 10.7354 11.0391 11.0313 11.2577 11.2538L11.3563 11.3563L11.4743 11.4781C10.5341 11.6534 9.57958 11.7402 8.62318 11.7373V11.7393ZM18.0896 12.7664C17.5596 12.7896 16.8942 12.5962 16.1747 12.2364C15.3637 11.8137 14.607 11.294 13.9212 10.6889C13.6465 10.451 13.3738 10.1938 13.1069 9.92489L12.9773 9.79529L12.8902 9.70438C12.3137 9.10221 11.7998 8.44311 11.3563 7.7372C10.7025 6.68688 10.3621 5.69652 10.4434 4.96729C10.5412 4.7379 10.6779 4.52718 10.8476 4.34445C11.2415 5.47396 11.8114 6.53414 12.5363 7.48575C12.963 8.06091 13.427 8.60755 13.9251 9.12216C14.0586 9.26143 14.1959 9.39683 14.3352 9.5303C14.5112 9.70245 14.693 9.8688 14.8768 10.0313C15.5074 10.5929 16.1864 11.0978 16.9058 11.54C17.4593 11.883 18.0465 12.1682 18.6583 12.3911C18.489 12.5444 18.2972 12.671 18.0896 12.7664ZM20.668 10.3833C20.4108 10.6309 19.2057 10.4259 17.6273 9.35427C16.871 8.8324 16.1703 8.23414 15.5364 7.56892C15.2037 7.22462 14.9077 6.88611 14.6427 6.55728C14.2039 6.02025 13.8154 5.44398 13.4821 4.83576C12.7722 3.51657 12.6755 2.5591 12.9018 2.34245C13.1939 2.06005 14.7104 2.36373 16.606 3.85701C17.1096 4.25807 17.5865 4.69163 18.0335 5.15492C20.5597 7.75848 21.0298 10.0255 20.668 10.3756V10.3833Z" fill="url(#paint0_linear_128_72)"/>
<defs>
<linearGradient id="paint0_linear_128_72" x1="1.5" y1="0.5" x2="20.5" y2="16.5" gradientUnits="userSpaceOnUse">
<stop stop-color="#FDA100"/>
<stop offset="1" stop-color="#FEC928"/>
</linearGradient>
</defs>
</svg>
